<svg id="Layer_2" data-name="Layer 2" xmlns="http://www.w3.org/2000/svg" viewBox="0 0 1920 1255.82"><defs><style>.cls-1{fill:#fff;}</style></defs><path class="cls-1" d="M960,343.84c0,126.28-28.51,248.63-84.76,363.61-53.44,109.28-129.47,207-226,290.49C472.73,1150.59,244.46,1240.85,0,1255.82V945.4c364.72-30.67,650.37-288.74,650.37-601.56q0-19.9-1.52-39.52H0V0H959V302.8Q960,323.26,960,343.84Z"/><path class="cls-1" d="M960,912c0-126.28,28.51-248.64,84.76-363.62,53.44-109.28,129.47-207,226-290.48C1447.27,105.23,1675.54,15,1920,0V310.42C1555.28,341.08,1269.63,599.16,1269.63,912q0,19.9,1.52,39.52H1920v304.32H961V953Q960,932.56,960,912Z"/></svg>